M48
;DRILL file {Pcbnew (2013-07-07 BZR 4022)-stable} date 6/19/2015 1:36:01 PM
;FORMAT={-:-/ absolute / inch / decimal}
FMAT,2
INCH,TZ
T1C0.025
T2C0.035
T3C0.042
%
G90
G05
M72
T1
X5.75Y-4.3
X5.75Y-6.1
X5.8Y-4.1
X5.8Y-4.4
X5.85Y-4.7
X5.85Y-4.9
X5.85Y-6.15
X5.9Y-4.15
X5.9Y-4.6
X6.Y-4.9
X6.Y-5.14
X6.05Y-5.1
X6.1Y-5.
X6.175Y-4.5
X6.25Y-5.7
X6.3Y-3.9
X6.3Y-4.45
X6.325Y-5.75
X6.35Y-4.7
X6.4Y-4.55
X6.4Y-4.9
X6.4Y-5.05
X6.4Y-5.2
X6.4Y-5.3
X6.4Y-5.55
X6.45Y-4.2
X6.45Y-4.65
X6.45Y-4.75
X6.45Y-5.
X6.45Y-6.15
X6.5Y-4.25
X6.5Y-4.5
X6.5Y-4.95
X6.5Y-5.3
X6.55Y-4.15
X6.55Y-4.5
X6.55Y-5.
X6.56Y-3.78
X6.6Y-4.15
X6.6Y-4.4
X6.6Y-5.65
X6.65Y-4.35
X6.65Y-4.75
X6.65Y-4.85
X6.675Y-5.05
X6.675Y-6.175
X6.75Y-5.
X6.75Y-5.8
X6.8Y-4.3
X6.8Y-4.4
X6.8Y-4.95
X6.85Y-4.15
X6.85Y-4.55
X6.85Y-5.2
X6.9Y-4.25
X6.95Y-4.2
X7.1Y-5.5
X7.2Y-4.85
X7.2Y-5.8
X7.25Y-5.8
X7.35Y-4.3
X7.35Y-5.3
X7.4Y-4.3
X7.4Y-5.25
X7.4Y-5.5
X7.45Y-5.5
X7.5Y-4.45
X7.5Y-4.75
X7.5Y-5.5
X7.55Y-4.25
X7.55Y-4.45
X7.55Y-4.75
X7.6Y-4.15
X7.6Y-5.2
X7.65Y-4.2
X7.65Y-5.6
X7.65Y-5.75
X7.7Y-3.925
X7.75Y-3.85
X7.85Y-4.35
X7.85Y-5.875
X7.95Y-4.65
X8.025Y-4.95
X8.025Y-5.1
X8.05Y-4.75
X8.05Y-4.85
X8.1Y-4.6
X8.1Y-4.75
X8.15Y-4.4
X8.15Y-4.45
X8.15Y-5.1
X8.2Y-4.1
X8.2Y-4.6
X8.25Y-4.75
X8.25Y-4.8
X8.25Y-5.1
X8.25Y-5.65
X8.4Y-4.75
X8.4Y-4.85
X8.4Y-5.15
X8.4Y-5.55
X8.5Y-4.45
X8.55Y-4.85
X8.55Y-5.8
X8.6Y-4.35
X8.6Y-4.6
X8.6Y-5.1
X8.6Y-5.8
X8.65Y-4.25
X8.7Y-5.55
X8.85Y-4.8
X8.85Y-5.05
X8.9Y-4.9
X8.9Y-5.65
X8.95Y-5.75
X9.Y-5.6
X9.05Y-4.7
X9.05Y-5.15
X9.1Y-4.95
X9.1Y-5.55
X9.15Y-5.
X9.15Y-5.4
X9.3Y-4.8
X9.3Y-5.55
X9.4Y-4.85
X9.4Y-5.3
T2
X5.8Y-4.25
X5.8Y-4.55
X5.8Y-4.7
X5.8Y-5.
X5.8Y-5.25
X5.8Y-5.55
X5.9Y-5.25
X5.9Y-5.55
X5.9Y-5.7
X5.95Y-4.3
X5.95Y-4.4
X5.95Y-4.5
X5.95Y-4.6
X5.95Y-4.7
X5.95Y-4.8
X5.95Y-4.9
X6.Y-5.25
X6.Y-5.55
X6.Y-5.7
X6.1Y-5.25
X6.1Y-5.55
X6.25Y-4.3
X6.25Y-4.4
X6.25Y-4.5
X6.25Y-4.6
X6.25Y-4.7
X6.25Y-4.8
X6.25Y-4.9
X6.25Y-5.4
X6.25Y-5.7
X6.4Y-4.25
X6.4Y-4.4
X6.4Y-4.55
X6.4Y-5.2
X6.4Y-5.6
X6.45Y-4.85
X6.5Y-5.2
X6.5Y-5.5
X6.5Y-5.6
X6.55Y-4.85
X6.7Y-4.25
X6.7Y-4.4
X6.7Y-4.55
X6.8Y-4.75
X6.85Y-5.1
X6.9Y-5.4
X6.9Y-5.7
X6.95Y-5.1
X7.Y-4.75
X7.1Y-5.6
X7.2Y-4.95
X7.2Y-5.1
X7.2Y-5.6
X7.4Y-5.6
X7.5Y-4.95
X7.5Y-5.1
X7.5Y-5.6
X7.85Y-5.2
X7.85Y-5.3
X7.85Y-5.4
X7.85Y-5.5
X8.15Y-5.2
X8.15Y-5.3
X8.15Y-5.4
X8.15Y-5.5
X8.5Y-4.15
X8.6Y-4.15
X8.65Y-4.35
X8.65Y-4.55
X8.65Y-4.65
X8.65Y-4.75
X8.65Y-4.85
X8.65Y-4.95
X8.65Y-5.2
X8.65Y-5.3
X8.65Y-5.4
X8.65Y-5.5
X8.7Y-4.15
X8.95Y-4.35
X8.95Y-4.55
X8.95Y-4.65
X8.95Y-4.75
X8.95Y-4.85
X8.95Y-4.95
X8.95Y-5.2
X8.95Y-5.3
X8.95Y-5.4
X8.95Y-5.5
X9.2Y-4.25
X9.2Y-4.6
X9.2Y-4.95
X9.2Y-5.3
X9.2Y-5.65
X9.3Y-4.25
X9.3Y-4.35
X9.3Y-4.6
X9.3Y-4.7
X9.3Y-4.95
X9.3Y-5.05
X9.3Y-5.3
X9.3Y-5.4
X9.3Y-5.65
X9.3Y-5.75
T3
X5.85Y-5.9
X5.85Y-6.
X5.86Y-3.9
X5.95Y-5.9
X5.95Y-6.
X5.96Y-3.9
X6.05Y-3.9
X6.15Y-3.9
X6.35Y-5.9
X6.55Y-4.
X6.65Y-3.9
X6.75Y-3.9
X6.75Y-4.
X6.75Y-6.
X6.85Y-3.9
X6.85Y-4.
X6.85Y-5.9
X6.95Y-3.9
X6.95Y-4.
X7.25Y-5.9
X7.65Y-5.9
X7.95Y-5.9
X8.05Y-5.9
X8.15Y-4.
X8.35Y-4.4
X8.35Y-4.5
X8.35Y-4.6
X8.35Y-4.7
X8.35Y-4.8
X8.35Y-4.9
X8.35Y-5.
X8.35Y-5.1
X8.35Y-5.2
X8.35Y-5.3
X8.35Y-5.4
X8.35Y-5.5
X8.45Y-4.4
X8.45Y-4.5
X8.45Y-4.6
X8.45Y-4.7
X8.45Y-4.8
X8.45Y-4.9
X8.45Y-5.
X8.45Y-5.1
X8.45Y-5.2
X8.45Y-5.3
X8.45Y-5.4
X8.45Y-5.5
T0
M30
