G04 (created by PCBNEW (2013-07-07 BZR 4022)-stable) date 6/19/2015 1:27:00 PM*
%MOIN*%
G04 Gerber Fmt 3.4, Leading zero omitted, Abs format*
%FSLAX34Y34*%
G01*
G70*
G90*
G04 APERTURE LIST*
%ADD10C,0.00590551*%
%ADD11C,0.012*%
%ADD12C,0.008*%
G04 APERTURE END LIST*
G54D10*
G54D11*
X63500Y-56000D02*
X65000Y-54500D01*
X65000Y-54500D02*
X65500Y-54500D01*
X65500Y-54500D02*
X66000Y-55000D01*
X66000Y-55000D02*
X66000Y-56000D01*
X66000Y-56000D02*
X65000Y-57000D01*
X65000Y-57000D02*
X64000Y-57000D01*
X64000Y-57000D02*
X63500Y-56500D01*
X63500Y-56500D02*
X63500Y-56000D01*
G54D12*
X63161Y-55676D02*
X62761Y-55676D01*
X63047Y-55809D01*
X62761Y-55942D01*
X63161Y-55942D01*
X63161Y-56342D02*
X63161Y-56114D01*
X63161Y-56228D02*
X62761Y-56228D01*
X62819Y-56190D01*
X62857Y-56152D01*
X62876Y-56114D01*
X66300Y-54914D02*
X66280Y-54933D01*
X66261Y-54971D01*
X66261Y-55066D01*
X66280Y-55104D01*
X66300Y-55123D01*
X66338Y-55142D01*
X66376Y-55142D01*
X66433Y-55123D01*
X66661Y-54895D01*
X66661Y-55142D01*
X66661Y-55314D02*
X66261Y-55314D01*
X66661Y-55542D01*
X66261Y-55542D01*
X66261Y-55695D02*
X66261Y-55961D01*
X66661Y-55790D01*
X66261Y-56190D02*
X66261Y-56228D01*
X66280Y-56266D01*
X66300Y-56285D01*
X66338Y-56304D01*
X66414Y-56323D01*
X66509Y-56323D01*
X66585Y-56304D01*
X66623Y-56285D01*
X66642Y-56266D01*
X66661Y-56228D01*
X66661Y-56190D01*
X66642Y-56152D01*
X66623Y-56133D01*
X66585Y-56114D01*
X66509Y-56095D01*
X66414Y-56095D01*
X66338Y-56114D01*
X66300Y-56133D01*
X66280Y-56152D01*
X66261Y-56190D01*
X66261Y-56571D02*
X66261Y-56609D01*
X66280Y-56647D01*
X66300Y-56666D01*
X66338Y-56685D01*
X66414Y-56704D01*
X66509Y-56704D01*
X66585Y-56685D01*
X66623Y-56666D01*
X66642Y-56647D01*
X66661Y-56609D01*
X66661Y-56571D01*
X66642Y-56533D01*
X66623Y-56514D01*
X66585Y-56495D01*
X66509Y-56476D01*
X66414Y-56476D01*
X66338Y-56495D01*
X66300Y-56514D01*
X66280Y-56533D01*
X66261Y-56571D01*
X66261Y-56952D02*
X66261Y-56990D01*
X66280Y-57028D01*
X66300Y-57047D01*
X66338Y-57066D01*
X66414Y-57085D01*
X66509Y-57085D01*
X66585Y-57066D01*
X66623Y-57047D01*
X66642Y-57028D01*
X66661Y-56990D01*
X66661Y-56952D01*
X66642Y-56914D01*
X66623Y-56895D01*
X66585Y-56876D01*
X66509Y-56857D01*
X66414Y-56857D01*
X66338Y-56876D01*
X66300Y-56895D01*
X66280Y-56914D01*
X66261Y-56952D01*
M02*
