G04 (created by PCBNEW (2013-07-07 BZR 4022)-stable) date 6/19/2015 1:27:00 PM*
%MOIN*%
G04 Gerber Fmt 3.4, Leading zero omitted, Abs format*
%FSLAX34Y34*%
G01*
G70*
G90*
G04 APERTURE LIST*
%ADD10C,0.00590551*%
%ADD11C,0.0420039*%
%ADD12O,0.065X0.09*%
%ADD13R,0.055X0.055*%
%ADD14C,0.055*%
%ADD15O,0.0593X0.1187*%
%ADD16R,0.06X0.06*%
%ADD17C,0.06*%
%ADD18R,0.065X0.065*%
%ADD19C,0.065*%
%ADD20C,0.035*%
%ADD21C,0.01*%
G04 APERTURE END LIST*
G54D10*
G54D11*
X58600Y-39000D03*
X59600Y-39000D03*
G54D12*
X69500Y-38900D03*
X68500Y-38900D03*
X67500Y-38900D03*
X66500Y-38900D03*
X61500Y-38900D03*
X60500Y-38900D03*
X81500Y-40100D03*
X69500Y-40100D03*
X68500Y-40100D03*
X67500Y-40100D03*
X65500Y-40100D03*
X80500Y-58900D03*
X79500Y-58900D03*
X76500Y-58900D03*
X72500Y-58900D03*
X68500Y-58900D03*
X63500Y-58900D03*
X59500Y-58900D03*
X58500Y-58900D03*
X67500Y-60100D03*
X59500Y-60100D03*
X58500Y-60100D03*
G54D13*
X65000Y-55000D03*
G54D14*
X65000Y-56000D03*
X64000Y-56000D03*
G54D13*
X92000Y-53000D03*
G54D14*
X93000Y-53000D03*
X93000Y-54000D03*
G54D13*
X92000Y-46000D03*
G54D14*
X93000Y-46000D03*
X93000Y-47000D03*
G54D13*
X92000Y-49500D03*
G54D14*
X93000Y-49500D03*
X93000Y-50500D03*
G54D13*
X92000Y-56500D03*
G54D14*
X93000Y-56500D03*
X93000Y-57500D03*
G54D13*
X92000Y-42500D03*
G54D14*
X93000Y-42500D03*
X93000Y-43500D03*
X89500Y-47500D03*
X86500Y-47500D03*
X67000Y-45500D03*
X64000Y-45500D03*
X86500Y-53000D03*
X89500Y-53000D03*
X81500Y-53000D03*
X78500Y-53000D03*
X86500Y-52000D03*
X89500Y-52000D03*
X81500Y-52000D03*
X78500Y-52000D03*
X89500Y-46500D03*
X86500Y-46500D03*
X89500Y-49500D03*
X86500Y-49500D03*
X89500Y-48500D03*
X86500Y-48500D03*
X81500Y-54000D03*
X78500Y-54000D03*
X89500Y-45500D03*
X86500Y-45500D03*
X72000Y-51000D03*
X75000Y-51000D03*
X69000Y-57000D03*
X69000Y-54000D03*
X67000Y-44000D03*
X64000Y-44000D03*
X67000Y-42500D03*
X64000Y-42500D03*
X58000Y-45500D03*
X58000Y-42500D03*
X58000Y-47000D03*
X58000Y-50000D03*
X86500Y-54000D03*
X89500Y-54000D03*
X62500Y-57000D03*
X62500Y-54000D03*
X75000Y-49500D03*
X72000Y-49500D03*
X89500Y-43500D03*
X86500Y-43500D03*
X86500Y-55000D03*
X89500Y-55000D03*
X81500Y-55000D03*
X78500Y-55000D03*
G54D15*
X85000Y-41500D03*
X86000Y-41500D03*
X87000Y-41500D03*
X72000Y-56000D03*
X71000Y-56000D03*
X75000Y-56000D03*
X74000Y-56000D03*
G54D16*
X84500Y-55000D03*
G54D17*
X83500Y-55000D03*
X84500Y-54000D03*
X83500Y-54000D03*
X84500Y-53000D03*
X83500Y-53000D03*
X84500Y-52000D03*
X83500Y-52000D03*
X84500Y-51000D03*
X83500Y-51000D03*
X84500Y-50000D03*
X83500Y-50000D03*
X84500Y-49000D03*
X83500Y-49000D03*
X84500Y-48000D03*
X83500Y-48000D03*
X84500Y-47000D03*
X83500Y-47000D03*
X84500Y-46000D03*
X83500Y-46000D03*
X84500Y-45000D03*
X83500Y-45000D03*
X84500Y-44000D03*
X83500Y-44000D03*
G54D13*
X58000Y-55500D03*
G54D14*
X59000Y-55500D03*
X60000Y-55500D03*
X61000Y-55500D03*
X61000Y-52500D03*
X60000Y-52500D03*
X59000Y-52500D03*
X58000Y-52500D03*
G54D13*
X62500Y-49000D03*
G54D14*
X62500Y-48000D03*
X62500Y-47000D03*
X62500Y-46000D03*
X62500Y-45000D03*
X62500Y-44000D03*
X62500Y-43000D03*
X59500Y-43000D03*
X59500Y-44000D03*
X59500Y-45000D03*
X59500Y-46000D03*
X59500Y-47000D03*
X59500Y-48000D03*
X59500Y-49000D03*
G54D13*
X64500Y-48500D03*
G54D14*
X65500Y-48500D03*
X59000Y-57000D03*
X60000Y-57000D03*
G54D18*
X64000Y-52000D03*
G54D19*
X65000Y-52000D03*
G54D14*
X70000Y-47500D03*
X68000Y-47500D03*
X69500Y-51000D03*
X68500Y-51000D03*
G54D20*
X84000Y-55500D03*
X87000Y-55500D03*
X85000Y-44500D03*
X60000Y-51400D03*
X66750Y-61750D03*
X60000Y-49000D03*
X58500Y-49000D03*
X58500Y-47000D03*
X64000Y-50500D03*
X64000Y-52000D03*
X66750Y-50500D03*
X68000Y-49500D03*
X65000Y-49500D03*
X64000Y-55500D03*
X68000Y-44000D03*
X81500Y-44000D03*
X68000Y-43000D03*
X64000Y-53000D03*
X65000Y-53000D03*
X71000Y-55000D03*
X74000Y-55000D03*
X74500Y-55000D03*
X75000Y-55000D03*
X88500Y-48000D03*
X88500Y-50500D03*
X89000Y-49000D03*
X86000Y-51000D03*
X86000Y-58000D03*
X90500Y-47000D03*
X90500Y-51500D03*
X84000Y-51500D03*
X91500Y-50000D03*
X91500Y-54000D03*
X93000Y-55500D03*
X91000Y-55500D03*
X91000Y-49500D03*
X94000Y-53000D03*
X94000Y-48500D03*
X93000Y-48000D03*
X75000Y-47500D03*
X64500Y-47500D03*
X66500Y-47500D03*
X66500Y-48500D03*
X72000Y-48500D03*
X61000Y-50000D03*
X64500Y-50000D03*
X62500Y-57000D03*
X61750Y-45000D03*
X63250Y-57500D03*
X64500Y-61500D03*
X58500Y-61500D03*
X66000Y-44000D03*
X66000Y-56500D03*
X57500Y-43000D03*
X57500Y-61000D03*
X66000Y-41500D03*
X68500Y-41500D03*
X68500Y-45500D03*
X80250Y-49500D03*
X80250Y-51000D03*
X60500Y-51000D03*
X79500Y-46500D03*
X78500Y-58750D03*
X72500Y-58000D03*
X85500Y-58000D03*
X85500Y-48500D03*
X84000Y-47500D03*
X84000Y-48500D03*
X80500Y-48500D03*
X80500Y-47500D03*
X75500Y-47500D03*
X75000Y-44500D03*
X63000Y-44500D03*
X63000Y-39000D03*
X89000Y-56500D03*
X82500Y-56500D03*
X82500Y-51000D03*
X81500Y-51000D03*
X81500Y-44500D03*
X75500Y-44500D03*
X75500Y-42500D03*
X69000Y-42500D03*
X64500Y-42000D03*
X73500Y-43000D03*
X73500Y-53000D03*
X65600Y-37800D03*
X78500Y-43500D03*
X66500Y-43500D03*
X76500Y-57500D03*
X89500Y-57500D03*
X77000Y-39250D03*
X90000Y-56000D03*
X76500Y-56000D03*
X76500Y-42000D03*
X69500Y-42000D03*
X77500Y-38500D03*
X86000Y-43500D03*
X86000Y-46000D03*
X86500Y-42500D03*
X64000Y-49000D03*
X64000Y-45500D03*
X82500Y-48000D03*
X82500Y-47500D03*
X81000Y-47500D03*
X81000Y-46000D03*
X64500Y-46500D03*
X65000Y-45000D03*
X65000Y-42500D03*
X63500Y-47000D03*
X58000Y-44000D03*
X82000Y-46000D03*
X82000Y-41000D03*
X58000Y-41000D03*
X59000Y-46000D03*
X59000Y-41500D03*
X65500Y-41500D03*
X65500Y-45000D03*
X72000Y-58000D03*
X67500Y-58000D03*
X67500Y-50000D03*
X65500Y-50000D03*
X76000Y-41500D03*
X76000Y-52000D03*
X68500Y-52000D03*
X74000Y-43000D03*
X74000Y-52500D03*
G54D21*
X87000Y-55500D02*
X84000Y-55500D01*
X89500Y-43500D02*
X87500Y-43500D01*
X86500Y-44500D02*
X85000Y-44500D01*
X87500Y-43500D02*
X86500Y-44500D01*
X64000Y-52000D02*
X62200Y-52000D01*
X61600Y-51400D02*
X60000Y-51400D01*
X62200Y-52000D02*
X61600Y-51400D01*
X79000Y-62000D02*
X67000Y-62000D01*
X67000Y-62000D02*
X66750Y-61750D01*
X80500Y-59000D02*
X80500Y-62000D01*
X80500Y-62000D02*
X79000Y-62000D01*
X79000Y-62000D02*
X78750Y-62000D01*
X60000Y-49000D02*
X59500Y-49000D01*
X58000Y-47000D02*
X58500Y-47000D01*
X58500Y-49000D02*
X59500Y-49000D01*
X66750Y-50500D02*
X66000Y-50500D01*
X66000Y-50500D02*
X64000Y-50500D01*
X72000Y-51000D02*
X69500Y-51000D01*
X59000Y-56200D02*
X59000Y-55500D01*
X61000Y-55500D02*
X61000Y-56200D01*
X61000Y-56200D02*
X59000Y-56200D01*
X65000Y-49500D02*
X68000Y-49500D01*
X64000Y-56000D02*
X64000Y-55500D01*
X64000Y-55500D02*
X63500Y-55500D01*
X59000Y-57000D02*
X59000Y-56200D01*
X59000Y-55500D02*
X59000Y-56200D01*
X68250Y-44000D02*
X68000Y-44000D01*
X81500Y-44000D02*
X68250Y-44000D01*
X83500Y-44000D02*
X81500Y-44000D01*
X87000Y-41500D02*
X87000Y-40000D01*
X87000Y-40000D02*
X81500Y-40000D01*
X62500Y-43000D02*
X68000Y-43000D01*
X64000Y-53000D02*
X65000Y-53000D01*
X61000Y-55500D02*
X63500Y-55500D01*
X63500Y-55500D02*
X64000Y-55500D01*
X74000Y-55000D02*
X71000Y-55000D01*
X75000Y-55000D02*
X74500Y-55000D01*
X93000Y-50500D02*
X88500Y-50500D01*
X88500Y-48000D02*
X84500Y-48000D01*
X84500Y-49000D02*
X89000Y-49000D01*
X93000Y-57500D02*
X90500Y-57500D01*
X86000Y-51000D02*
X84500Y-51000D01*
X90000Y-58000D02*
X86000Y-58000D01*
X90500Y-57500D02*
X90000Y-58000D01*
X90500Y-47000D02*
X93000Y-47000D01*
X84000Y-51500D02*
X90500Y-51500D01*
X93000Y-54000D02*
X91500Y-54000D01*
X91500Y-50000D02*
X84500Y-50000D01*
X89500Y-46500D02*
X92500Y-46500D01*
X92500Y-46500D02*
X93000Y-46000D01*
X89500Y-49500D02*
X91000Y-49500D01*
X91000Y-55500D02*
X93000Y-55500D01*
X89500Y-48500D02*
X94000Y-48500D01*
X94000Y-53000D02*
X93000Y-53000D01*
X89500Y-47500D02*
X92500Y-47500D01*
X92500Y-47500D02*
X93000Y-48000D01*
X70000Y-47500D02*
X75000Y-47500D01*
X66500Y-47500D02*
X64500Y-47500D01*
X72000Y-48500D02*
X66500Y-48500D01*
X64500Y-50000D02*
X61000Y-50000D01*
X69000Y-54000D02*
X69000Y-54500D01*
X68000Y-56000D02*
X69000Y-55000D01*
X69000Y-55000D02*
X69000Y-54500D01*
X68000Y-56000D02*
X65000Y-56000D01*
X60000Y-57000D02*
X62500Y-57000D01*
X65000Y-55000D02*
X58500Y-55000D01*
X58500Y-55000D02*
X58000Y-55500D01*
X61750Y-45000D02*
X59500Y-45000D01*
X58500Y-59000D02*
X58500Y-58000D01*
X59000Y-57500D02*
X63250Y-57500D01*
X58500Y-58000D02*
X59000Y-57500D01*
X58750Y-61500D02*
X64500Y-61500D01*
X58500Y-61500D02*
X58750Y-61500D01*
X59500Y-59000D02*
X61750Y-59000D01*
X63000Y-43500D02*
X62500Y-44000D01*
X65500Y-43500D02*
X63000Y-43500D01*
X66000Y-44000D02*
X65500Y-43500D01*
X66000Y-59750D02*
X66000Y-56500D01*
X65750Y-60000D02*
X66000Y-59750D01*
X62750Y-60000D02*
X65750Y-60000D01*
X61750Y-59000D02*
X62750Y-60000D01*
X59500Y-60000D02*
X59500Y-61000D01*
X57500Y-43000D02*
X59500Y-43000D01*
X59500Y-61000D02*
X57500Y-61000D01*
X86500Y-45500D02*
X68500Y-45500D01*
X68500Y-41500D02*
X66000Y-41500D01*
X80250Y-49500D02*
X86500Y-49500D01*
X78250Y-51000D02*
X80250Y-51000D01*
X77750Y-51500D02*
X78250Y-51000D01*
X74250Y-51500D02*
X77750Y-51500D01*
X66500Y-51500D02*
X74250Y-51500D01*
X66250Y-51250D02*
X66500Y-51500D01*
X63750Y-51250D02*
X66250Y-51250D01*
X63500Y-51500D02*
X63750Y-51250D01*
X62500Y-51500D02*
X63500Y-51500D01*
X62000Y-51000D02*
X62500Y-51500D01*
X60500Y-51000D02*
X62000Y-51000D01*
X68500Y-59000D02*
X70000Y-59000D01*
X79500Y-46500D02*
X86500Y-46500D01*
X78250Y-58750D02*
X78500Y-58750D01*
X77250Y-59750D02*
X78250Y-58750D01*
X70750Y-59750D02*
X77250Y-59750D01*
X70000Y-59000D02*
X70750Y-59750D01*
X86500Y-48500D02*
X85500Y-48500D01*
X85500Y-58000D02*
X72500Y-58000D01*
X61500Y-39000D02*
X63000Y-39000D01*
X84000Y-47500D02*
X86500Y-47500D01*
X80500Y-48500D02*
X84000Y-48500D01*
X75500Y-47500D02*
X80500Y-47500D01*
X63000Y-44500D02*
X75000Y-44500D01*
X82500Y-56500D02*
X89000Y-56500D01*
X81500Y-51000D02*
X82500Y-51000D01*
X75500Y-44500D02*
X81500Y-44500D01*
X69000Y-42500D02*
X75500Y-42500D01*
X78500Y-53000D02*
X73500Y-53000D01*
X68000Y-42000D02*
X64500Y-42000D01*
X68000Y-42500D02*
X68000Y-42000D01*
X68500Y-43000D02*
X68000Y-42500D01*
X73500Y-43000D02*
X68500Y-43000D01*
X66400Y-40000D02*
X67500Y-40000D01*
X65600Y-39200D02*
X66400Y-40000D01*
X65600Y-37800D02*
X65600Y-39200D01*
X66500Y-43500D02*
X78500Y-43500D01*
X89500Y-57500D02*
X76500Y-57500D01*
X69500Y-39000D02*
X76750Y-39000D01*
X76750Y-39000D02*
X77000Y-39250D01*
X76500Y-56000D02*
X90000Y-56000D01*
X69500Y-42000D02*
X76500Y-42000D01*
X68500Y-39000D02*
X69250Y-38250D01*
X77250Y-38250D02*
X77500Y-38500D01*
X69250Y-38250D02*
X77250Y-38250D01*
X92000Y-46000D02*
X92000Y-42500D01*
X84500Y-46000D02*
X86000Y-46000D01*
X86000Y-43500D02*
X86500Y-43500D01*
X92000Y-42500D02*
X86500Y-42500D01*
X62500Y-49000D02*
X64000Y-49000D01*
X64000Y-49000D02*
X83500Y-49000D01*
X64500Y-46500D02*
X68500Y-46500D01*
X82500Y-48000D02*
X83500Y-48000D01*
X81000Y-47500D02*
X82500Y-47500D01*
X69000Y-46000D02*
X81000Y-46000D01*
X68500Y-46500D02*
X69000Y-46000D01*
X62500Y-47000D02*
X63000Y-47000D01*
X63500Y-46500D02*
X64500Y-46500D01*
X63000Y-47000D02*
X63500Y-46500D01*
X64000Y-42500D02*
X65000Y-42500D01*
X65000Y-45000D02*
X62500Y-45000D01*
X62500Y-45000D02*
X63500Y-45000D01*
X83500Y-47000D02*
X63500Y-47000D01*
X59500Y-44000D02*
X58000Y-44000D01*
X82000Y-46000D02*
X83500Y-46000D01*
X58000Y-41000D02*
X82000Y-41000D01*
X59500Y-46000D02*
X57500Y-46000D01*
X57250Y-50000D02*
X58000Y-50000D01*
X57250Y-46000D02*
X57250Y-50000D01*
X57500Y-46000D02*
X57250Y-46000D01*
X83500Y-45000D02*
X65500Y-45000D01*
X59000Y-46000D02*
X59500Y-46000D01*
X65500Y-41500D02*
X59000Y-41500D01*
X86500Y-55000D02*
X84500Y-55000D01*
X83500Y-55000D02*
X81500Y-55000D01*
X84500Y-54000D02*
X86500Y-54000D01*
X81500Y-54000D02*
X83500Y-54000D01*
X81500Y-52000D02*
X83500Y-52000D01*
X84500Y-53000D02*
X86500Y-53000D01*
X83500Y-53000D02*
X81500Y-53000D01*
X86500Y-52000D02*
X84500Y-52000D01*
X67500Y-58000D02*
X72000Y-58000D01*
X65500Y-50000D02*
X67500Y-50000D01*
X84000Y-41500D02*
X85000Y-41500D01*
X76000Y-41500D02*
X84000Y-41500D01*
X68500Y-52000D02*
X76000Y-52000D01*
X62500Y-54000D02*
X66000Y-54000D01*
X86000Y-42500D02*
X86000Y-41500D01*
X85500Y-43000D02*
X86000Y-42500D01*
X74000Y-43000D02*
X85500Y-43000D01*
X67500Y-52500D02*
X74000Y-52500D01*
X66000Y-54000D02*
X67500Y-52500D01*
M02*
